<svg xmlns="http://www.w3.org/2000/svg" viewBox="0 0 32 32"><linearGradient id="a" x1="2" x2="24.003" y1="16" y2="16" gradientUnits="userSpaceOnUse"><stop offset="0" stop-color="#2B2E81"/><stop offset="1" stop-color="#BE4F9C"/></linearGradient><path fill="url(#a)" d="M29 16.1V9.5C29 7 27 5 24.5 5H19V4h2.5c.3 0 .5-.2.5-.5v-2c0-.3-.2-.5-.5-.5h-3c-.3 0-.5.2-.5.5V5h-6.5C9.6 5 7.9 6.2 7.3 8H3.5c-.3 0-.6.1-.9.3l-.1.1c-.3.2-.5.6-.5 1.1v4c0 .8.7 1.5 1.5 1.5H7v1H3.5c-.8 0-1.5.7-1.5 1.5S2.7 19 3.5 19H18v11.5c0 .3.2.5.5.5s.5-.2.5-.5V19h2v11.5c0 .3.2.5.5.5s.5-.2.5-.5V19h3v11.5c0 .3.2.5.5.5s.5-.2.5-.5V19h2.5c.8 0 1.5-.7 1.5-1.5 0-.7-.4-1.2-1-1.4zM19 2h2v1h-2V2zm-4.7 4H18v6.1c-.6.2-1 .8-1 1.4 0 .8.7 1.5 1.5 1.5s1.5-.7 1.5-1.5c0-.7-.4-1.2-1-1.4V6h5.5C26.4 6 28 7.6 28 9.5V16H16V9.5c0-.3 0-.6-.1-.8v-.1c-.1-.3-.1-.5-.2-.7 0 0 0-.1-.1-.1-.1-.2-.2-.5-.4-.7 0 0 0-.1-.1-.1-.2-.2-.3-.4-.5-.6 0-.2-.2-.3-.3-.4zm4.2 7c.3 0 .5.2.5.5s-.2.5-.5.5-.5-.2-.5-.5.2-.5.5-.5zM7.6 9h2.2L7 10.9 4.2 9h3.4zM3 13.5V9.4l3.7 2.5c.1.1.2.1.3.1s.2 0 .3-.1L11 9.4v4.1c0 .3-.2.5-.5.5h-7c-.3 0-.5-.2-.5-.5zM8 15h2.5c.8 0 1.5-.7 1.5-1.5v-4c0-.5-.2-.9-.5-1.2-.3-.2-.7-.3-1-.3H8.4c.6-1.2 1.8-2 3.1-2C13.4 6 15 7.6 15 9.5V16H8v-1zm-5 2.5c0-.3.2-.5.5-.5h6.6c-.1.2-.1.3-.1.5s0 .3.1.5H3.5c-.3 0-.5-.2-.5-.5zm25.5.5h-17c-.3 0-.5-.2-.5-.5s.2-.5.5-.5h17c.3 0 .5.2.5.5s-.2.5-.5.5z"/></svg>